<svg width="30" height="30" viewBox="0 0 30 30" fill="none" xmlns="http://www.w3.org/2000/svg">
<path id="Vector" d="M27.5 7.06188V3.13188C27.5 2.09563 26.66 1.25688 25.625 1.25688C24.59 1.25688 23.75 2.09563 23.75 3.13188V4.49313L18.845 1.18313C16.5088 -0.394375 13.4913 -0.394375 11.155 1.18313L3.03 6.66563C1.1325 7.94563 0 10.0756 0 12.3644V23.1319C0 26.9231 3.085 30.0069 6.875 30.0069H10.625C11.66 30.0069 12.5 29.1681 12.5 28.1319V18.1319C12.5 17.7869 12.7812 17.5069 13.125 17.5069H16.875C17.2188 17.5069 17.5 17.7869 17.5 18.1319V28.1319C17.5 29.1681 18.34 30.0069 19.375 30.0069H23.125C26.915 30.0069 30 26.9231 30 23.1319V12.3644C30 10.2969 29.0763 8.35938 27.5 7.06188ZM26.25 23.1319C26.25 24.8544 24.8487 26.2569 23.125 26.2569H21.25V18.1319C21.25 15.7194 19.2875 13.7569 16.875 13.7569H13.125C10.7125 13.7569 8.75 15.7194 8.75 18.1319V26.2569H6.875C5.15125 26.2569 3.75 24.8544 3.75 23.1319V12.3644C3.75 11.3231 4.265 10.3556 5.1275 9.77313L13.2525 4.29063C14.315 3.57438 15.6862 3.57438 16.7488 4.29063L24.8738 9.77438C25.735 10.3556 26.2512 11.3244 26.2512 12.3644L26.25 23.1319Z" fill="#C4C4C4"/>
</svg>
