<svg width="31" height="39" viewBox="0 0 31 39" fill="none" xmlns="http://www.w3.org/2000/svg">
<path d="M5.82141 12.7801L7.07358 15.3265L8.32576 12.7801H10.4303L8.29419 16.5787L10.4881 20.4404H8.36259L7.07358 17.8466L5.78458 20.4404H3.65378L5.85298 16.5787L3.71165 12.7801H5.82141ZM12.3987 12.7801H13.9034L15.6133 18.1097L17.3232 12.7801H18.8279L16.2236 20.4404H15.003L12.3987 12.7801ZM11.4833 12.7801H13.0406L13.3299 18.6516V20.4404H11.4833V12.7801ZM18.1861 12.7801H19.7487V20.4404H17.8967V18.6516L18.1861 12.7801ZM26.3786 19.0199V20.4404H22.5063V19.0199H26.3786ZM23.164 12.7801V20.4404H21.3173V12.7801H23.164Z" fill="#222"/>
<path fill-rule="evenodd" clip-rule="evenodd" d="M3.49152 3.08005H26.8448L26.8448 25.1457H26.8576V30.8339C28.78 30.8278 30.3363 29.4511 30.3363 27.7538V3.08005C30.3363 1.37898 28.7731 0 26.8448 0H3.49152C1.56321 0 0 1.37899 0 3.08005V27.7538C0 29.4549 1.56321 30.8339 3.49152 30.8339H16.9089V27.7538L3.49152 27.7538V3.08005Z" fill="#222"/>
<path d="M26.773 31.7616H25.1414V26.6307C25.1414 26.0663 24.6796 25.6045 24.1152 25.6045H20.0104C19.446 25.6045 18.9842 26.0663 18.9842 26.6307V31.7616H17.3526C16.4393 31.7616 15.9775 32.8699 16.624 33.5164L21.3342 38.2267C21.7344 38.6269 22.3809 38.6269 22.7811 38.2267L27.4914 33.5164C28.1379 32.8699 27.6863 31.7616 26.773 31.7616Z" fill="#222"/>
</svg>
